<?xml version="1.0" standalone="no"?>
<!DOCTYPE svg PUBLIC "-//W3C//DTD SVG 20010904//EN"
 "http://www.w3.org/TR/2001/REC-SVG-20010904/DTD/svg10.dtd">
<svg version="1.0" xmlns="http://www.w3.org/2000/svg"
 width="700.000000pt" height="700.000000pt" viewBox="0 0 700.000000 700.000000"
 preserveAspectRatio="xMidYMid meet">
<metadata>
Created by potrace 1.14, written by Peter Selinger 2001-2017
</metadata>
<g transform="translate(0.000000,700.000000) scale(0.100000,-0.100000)"
fill="#000000" stroke="none">
<path d="M3370 6545 l0 -455 -245 0 c-226 0 -245 -1 -246 -17 -1 -23 -1 -5134
0 -5150 1 -10 57 -13 246 -13 l245 0 0 -455 0 -455 130 0 130 0 0 455 0 455
245 0 245 0 1 28 c0 15 1 1179 1 2587 l0 2560 -246 3 -246 2 0 455 0 455 -130
0 -130 0 0 -455z"/>
<path d="M5025 3960 c0 -1423 3 -2130 10 -2131 5 -1 116 -2 245 -3 l235 -1 0
-358 0 -357 55 -1 c30 0 86 -1 123 -2 38 -1 72 3 75 8 4 6 8 159 9 340 1 182
2 339 2 351 1 20 5 20 234 19 127 -1 238 1 245 3 9 3 12 439 12 2133 l0 2129
-623 0 -622 0 0 -2130z"/>
<path d="M1225 5515 c0 -216 -4 -335 -10 -336 -5 -1 -116 -2 -245 -3 l-235 -1
-3 -2133 -2 -2132 623 0 622 0 -1 2128 c-1 1170 -2 2129 -3 2132 0 3 -110 5
-244 5 l-243 0 0 337 1 338 -130 0 -131 0 1 -335z"/>
</g>
</svg>
