<?xml version="1.0" standalone="no"?>
<!DOCTYPE svg PUBLIC "-//W3C//DTD SVG 20010904//EN"
 "http://www.w3.org/TR/2001/REC-SVG-20010904/DTD/svg10.dtd">
<svg version="1.0" xmlns="http://www.w3.org/2000/svg"
 width="700.000000pt" height="700.000000pt" viewBox="0 0 700.000000 700.000000"
 preserveAspectRatio="xMidYMid meet">
<metadata>
Created by potrace 1.14, written by Peter Selinger 2001-2017
</metadata>
<g transform="translate(0.000000,700.000000) scale(0.100000,-0.100000)"
fill="#000000" stroke="none">
<path d="M3340 6310 l0 -450 -365 0 -365 0 0 -2360 0 -2360 365 0 365 0 0
-455 0 -455 183 2 182 3 3 452 2 453 365 0 365 0 0 2360 0 2360 -365 0 -365 0
0 450 0 450 -185 0 -185 0 0 -450z"/>
<path d="M4610 3925 l0 -1935 365 0 365 0 2 -372 3 -373 180 0 180 0 3 373 2
372 365 0 365 0 0 1935 0 1935 -915 0 -915 0 0 -1935z"/>
<path d="M1340 5370 l0 -370 -365 0 -365 0 0 -1930 0 -1930 915 0 915 0 0
1930 0 1930 -365 0 -365 0 0 370 0 370 -185 0 -185 0 0 -370z"/>
</g>
</svg>
