<?xml version="1.0" standalone="no"?>
<!DOCTYPE svg PUBLIC "-//W3C//DTD SVG 20010904//EN"
 "http://www.w3.org/TR/2001/REC-SVG-20010904/DTD/svg10.dtd">
<svg version="1.0" xmlns="http://www.w3.org/2000/svg"
 width="512.000000pt" height="512.000000pt" viewBox="0 0 512.000000 512.000000"
 preserveAspectRatio="xMidYMid meet">
<metadata>
Created by potrace 1.14, written by Peter Selinger 2001-2017
</metadata>
<g transform="translate(0.000000,512.000000) scale(0.100000,-0.100000)"
fill="#000000" stroke="none">
<path d="M938 5113 c-2 -5 -4 -155 -3 -335 1 -323 0 -328 -20 -329 -11 0 -100
-1 -197 -1 l-178 0 0 -76 c0 -87 0 -3379 0 -3574 l0 -126 188 0 c103 0 192 -1
197 -1 7 -1 11 -111 11 -333 l-1 -333 43 -3 42 -3 0 335 c0 313 1 336 18 337
9 0 103 1 209 1 l191 1 1 913 c0 503 0 918 1 923 0 6 133 10 335 10 l335 0 0
-923 0 -924 198 1 197 0 2 -319 c1 -175 2 -327 2 -336 1 -14 10 -18 41 -18
l40 0 0 335 0 335 23 1 c12 0 106 1 210 1 l187 0 0 923 0 924 335 -1 335 0 0
-21 c1 -12 1 -428 1 -924 l1 -902 181 1 c100 0 190 -1 200 -1 16 -1 17 -24 17
-336 l0 -335 40 0 c25 0 40 5 41 13 0 6 1 157 1 335 l1 322 46 1 c25 0 119 1
209 1 l162 1 0 33 c0 19 1 846 1 1839 0 993 -1 1827 -1 1854 l0 49 -198 -1
c-109 0 -203 2 -209 6 -6 4 -10 119 -10 334 l1 328 -42 3 -42 3 0 -335 0 -336
-22 -1 c-13 0 -103 -1 -200 -1 l-177 0 0 -886 c0 -488 0 -903 -1 -924 l0 -36
-335 0 -335 0 0 923 0 923 -182 0 c-101 0 -195 1 -210 1 l-28 1 0 335 0 335
-42 0 -43 0 2 -335 1 -335 -36 -1 c-21 0 -110 -1 -199 -1 l-163 0 0 -924 0
-923 -335 0 -335 0 0 32 c-1 18 -2 432 -3 922 l-2 890 -195 2 c-107 1 -201 2
-207 2 -10 1 -13 75 -13 336 l0 335 -39 0 c-22 0 -41 -3 -43 -7z"/>
</g>
</svg>
