<svg width="108" height="20" viewBox="0 0 54 10" fill="none" xmlns="http://www.w3.org/2000/svg">
<path d="M0.936 9V0.732H3.948C4.564 0.732 5.076 0.828 5.484 1.02C5.9 1.212 6.228 1.484 6.468 1.836C6.708 2.188 6.876 2.612 6.972 3.108C7.076 3.596 7.128 4.14 7.128 4.74C7.128 5.348 7.08 5.912 6.984 6.432C6.888 6.944 6.72 7.396 6.48 7.788C6.24 8.172 5.916 8.472 5.508 8.688C5.1 8.896 4.584 9 3.96 9H0.936ZM2.088 8.004H3.936C4.352 8.004 4.688 7.916 4.944 7.74C5.208 7.564 5.412 7.324 5.556 7.02C5.7 6.716 5.8 6.372 5.856 5.988C5.912 5.596 5.94 5.18 5.94 4.74C5.94 4.308 5.912 3.912 5.856 3.552C5.8 3.184 5.7 2.864 5.556 2.592C5.412 2.32 5.208 2.112 4.944 1.968C4.688 1.816 4.352 1.74 3.936 1.74H2.088V8.004ZM10.7464 9.12C10.1304 9.12 9.64238 9.008 9.28238 8.784C8.93038 8.552 8.67438 8.208 8.51438 7.752C8.35438 7.296 8.27438 6.724 8.27438 6.036C8.27438 5.284 8.37838 4.676 8.58638 4.212C8.80238 3.748 9.10238 3.408 9.48638 3.192C9.87038 2.976 10.3304 2.868 10.8664 2.868C11.6904 2.868 12.3104 3.092 12.7264 3.54C13.1504 3.98 13.3624 4.692 13.3624 5.676L13.3024 6.432H9.41438C9.42238 7.008 9.53038 7.444 9.73838 7.74C9.94638 8.028 10.3224 8.172 10.8664 8.172C11.0984 8.172 11.3504 8.168 11.6224 8.16C11.9024 8.144 12.1784 8.128 12.4504 8.112C12.7224 8.096 12.9544 8.08 13.1464 8.064L13.1704 8.904C12.9704 8.936 12.7304 8.968 12.4504 9C12.1704 9.04 11.8784 9.068 11.5744 9.084C11.2784 9.108 11.0024 9.12 10.7464 9.12ZM9.41438 5.604H12.2464C12.2464 4.924 12.1344 4.448 11.9104 4.176C11.6944 3.904 11.3464 3.768 10.8664 3.768C10.3944 3.768 10.0344 3.908 9.78638 4.188C9.53838 4.468 9.41438 4.94 9.41438 5.604ZM14.9076 9V3.936H14.1996V2.988H14.9076V2.52C14.9076 1.944 14.9596 1.496 15.0636 1.176C15.1676 0.848 15.3436 0.624 15.5916 0.504C15.8396 0.376 16.1676 0.312 16.5756 0.312C16.6796 0.312 16.8156 0.316 16.9836 0.323999C17.1596 0.331999 17.3276 0.343999 17.4876 0.36C17.6476 0.368 17.7636 0.38 17.8356 0.396L17.8236 1.296C17.6876 1.288 17.5236 1.284 17.3316 1.284C17.1396 1.284 16.9836 1.284 16.8636 1.284C16.6476 1.284 16.4796 1.32 16.3596 1.392C16.2396 1.456 16.1516 1.58 16.0956 1.764C16.0476 1.94 16.0236 2.192 16.0236 2.52V2.988H17.6796V3.936H16.0236V9H14.9076ZM18.6751 9V2.988H19.7911V9H18.6751ZM18.6751 1.776V0.611999H19.7911V1.776H18.6751ZM24.3218 9.12C23.6978 9.12 23.1818 9.032 22.7738 8.856C22.3738 8.68 22.0618 8.416 21.8378 8.064C21.6138 7.704 21.4578 7.26 21.3698 6.732C21.2818 6.196 21.2378 5.58 21.2378 4.884C21.2378 4.172 21.2818 3.548 21.3698 3.012C21.4578 2.476 21.6138 2.032 21.8378 1.68C22.0698 1.32 22.3858 1.052 22.7858 0.875999C23.1858 0.691999 23.7018 0.599999 24.3338 0.599999C24.6138 0.599999 24.8978 0.615999 25.1858 0.648C25.4738 0.672 25.7418 0.708 25.9898 0.756C26.2458 0.796 26.4658 0.835999 26.6498 0.875999L26.6018 1.824C26.4338 1.792 26.2218 1.764 25.9658 1.74C25.7178 1.708 25.4618 1.68 25.1978 1.656C24.9418 1.632 24.7058 1.62 24.4898 1.62C24.0578 1.62 23.7058 1.684 23.4338 1.812C23.1618 1.94 22.9498 2.136 22.7978 2.4C22.6538 2.664 22.5538 3 22.4978 3.408C22.4498 3.816 22.4258 4.308 22.4258 4.884C22.4258 5.444 22.4498 5.928 22.4978 6.336C22.5538 6.744 22.6538 7.08 22.7978 7.344C22.9418 7.6 23.1498 7.792 23.4218 7.92C23.7018 8.04 24.0618 8.1 24.5018 8.1C24.8378 8.1 25.2018 8.08 25.5938 8.04C25.9938 8 26.3338 7.956 26.6138 7.908L26.6498 8.868C26.4578 8.908 26.2298 8.948 25.9658 8.988C25.7098 9.028 25.4378 9.06 25.1498 9.084C24.8698 9.108 24.5938 9.12 24.3218 9.12ZM27.9095 9V0.431999H29.0255V3.288C29.2335 3.2 29.5055 3.108 29.8415 3.012C30.1775 2.916 30.4975 2.868 30.8015 2.868C31.3535 2.868 31.7775 2.968 32.0735 3.168C32.3775 3.36 32.5855 3.676 32.6975 4.116C32.8095 4.548 32.8655 5.116 32.8655 5.82V9H31.7375V5.892C31.7375 5.396 31.7095 5 31.6535 4.704C31.5975 4.408 31.4855 4.196 31.3175 4.068C31.1575 3.932 30.9095 3.864 30.5735 3.864C30.2935 3.864 30.0055 3.9 29.7095 3.972C29.4215 4.044 29.1935 4.116 29.0255 4.188V9H27.9095ZM35.7934 9.12C35.2254 9.12 34.7934 8.964 34.4974 8.652C34.2014 8.34 34.0534 7.88 34.0534 7.272C34.0534 6.864 34.1254 6.536 34.2694 6.288C34.4134 6.032 34.6254 5.84 34.9054 5.712C35.1934 5.584 35.5494 5.508 35.9734 5.484L37.7134 5.316V4.848C37.7134 4.472 37.6294 4.208 37.4614 4.056C37.2934 3.896 37.0414 3.816 36.7054 3.816C36.4974 3.816 36.2534 3.824 35.9734 3.84C35.6934 3.856 35.4174 3.876 35.1454 3.9C34.8734 3.924 34.6294 3.948 34.4134 3.972L34.3654 3.156C34.5654 3.108 34.8014 3.064 35.0734 3.024C35.3534 2.984 35.6454 2.948 35.9494 2.916C36.2534 2.884 36.5334 2.868 36.7894 2.868C37.2614 2.868 37.6494 2.936 37.9534 3.072C38.2574 3.208 38.4814 3.42 38.6254 3.708C38.7694 3.996 38.8414 4.368 38.8414 4.824V7.776C38.8574 7.936 38.9214 8.056 39.0334 8.136C39.1534 8.208 39.3014 8.256 39.4774 8.28L39.4414 9.108C39.2654 9.108 39.0974 9.1 38.9374 9.084C38.7854 9.076 38.6454 9.052 38.5174 9.012C38.3894 8.98 38.2734 8.936 38.1694 8.88C38.0734 8.816 37.9814 8.744 37.8934 8.664C37.7494 8.728 37.5614 8.796 37.3294 8.868C37.0974 8.94 36.8494 9 36.5854 9.048C36.3214 9.096 36.0574 9.12 35.7934 9.12ZM36.0214 8.232C36.2214 8.232 36.4254 8.212 36.6334 8.172C36.8494 8.132 37.0534 8.088 37.2454 8.04C37.4374 7.984 37.5934 7.936 37.7134 7.896V6.096L36.1174 6.252C35.7814 6.276 35.5414 6.372 35.3974 6.54C35.2534 6.7 35.1814 6.932 35.1814 7.236C35.1814 7.548 35.2494 7.792 35.3854 7.968C35.5294 8.144 35.7414 8.232 36.0214 8.232ZM40.5071 9V2.988H41.6231V3.768C41.7671 3.664 41.9511 3.552 42.1751 3.432C42.3991 3.312 42.6431 3.2 42.9071 3.096C43.1791 2.984 43.4471 2.904 43.7111 2.856V3.972C43.4551 4.02 43.1911 4.088 42.9191 4.176C42.6551 4.264 42.4071 4.36 42.1751 4.464C41.9511 4.56 41.7671 4.648 41.6231 4.728V9H40.5071ZM46.7067 9.132C46.2827 9.132 45.9427 9.068 45.6867 8.94C45.4387 8.812 45.2587 8.592 45.1467 8.28C45.0427 7.96 44.9907 7.512 44.9907 6.936V3.936H44.1747V2.988H44.9907V1.224H46.0947V2.988H47.8827V3.936H46.0947V6.624C46.0947 7.016 46.1107 7.324 46.1427 7.548C46.1827 7.764 46.2587 7.916 46.3707 8.004C46.4827 8.092 46.6587 8.136 46.8987 8.136C46.9787 8.136 47.0787 8.136 47.1987 8.136C47.3187 8.128 47.4427 8.12 47.5707 8.112C47.6987 8.096 47.8107 8.084 47.9067 8.076L47.9667 8.988C47.7827 9.02 47.5667 9.052 47.3187 9.084C47.0707 9.116 46.8667 9.132 46.7067 9.132ZM50.8772 9.12C50.6692 9.12 50.4292 9.108 50.1572 9.084C49.8932 9.06 49.6292 9.032 49.3652 9C49.1092 8.96 48.8852 8.92 48.6932 8.88L48.7412 7.98C48.9412 8.004 49.1692 8.032 49.4252 8.064C49.6812 8.096 49.9292 8.124 50.1692 8.148C50.4172 8.164 50.6132 8.172 50.7572 8.172C51.0612 8.172 51.3132 8.144 51.5132 8.088C51.7132 8.032 51.8652 7.94 51.9692 7.812C52.0732 7.676 52.1252 7.492 52.1252 7.26C52.1252 7.076 52.0852 6.936 52.0052 6.84C51.9252 6.736 51.7772 6.652 51.5612 6.588C51.3452 6.516 51.0292 6.448 50.6132 6.384C50.1652 6.312 49.7932 6.224 49.4972 6.12C49.2012 6.008 48.9812 5.84 48.8372 5.616C48.6932 5.392 48.6212 5.08 48.6212 4.68C48.6212 4.216 48.7252 3.856 48.9332 3.6C49.1492 3.336 49.4252 3.148 49.7612 3.036C50.1052 2.924 50.4652 2.868 50.8412 2.868C51.0812 2.868 51.3372 2.88 51.6092 2.904C51.8892 2.928 52.1572 2.96 52.4132 3C52.6692 3.04 52.8892 3.076 53.0732 3.108L53.0372 4.02C52.8452 3.988 52.6212 3.96 52.3652 3.936C52.1092 3.904 51.8532 3.88 51.5972 3.864C51.3412 3.848 51.1172 3.84 50.9252 3.84C50.7012 3.84 50.4972 3.864 50.3132 3.912C50.1372 3.952 49.9972 4.032 49.8932 4.152C49.7972 4.264 49.7492 4.428 49.7492 4.644C49.7492 4.804 49.7852 4.932 49.8572 5.028C49.9292 5.124 50.0732 5.208 50.2892 5.28C50.5052 5.344 50.8132 5.408 51.2132 5.472C51.7092 5.552 52.1052 5.652 52.4012 5.772C52.6972 5.892 52.9132 6.064 53.0492 6.288C53.1852 6.512 53.2532 6.82 53.2532 7.212C53.2532 7.924 53.0412 8.42 52.6172 8.7C52.2012 8.98 51.6212 9.12 50.8772 9.12Z" fill="url(#paint0_linear_1_2)"/>
<defs>
<linearGradient id="paint0_linear_1_2" x1="53" y1="6" x2="1.5" y2="5.5" gradientUnits="userSpaceOnUse">
<stop stop-color="#5EC1E8"/>
<stop offset="1" stop-color="white"/>
</linearGradient>
</defs>
</svg>
