<svg width="285" height="285" viewBox="0 0 285 285" fill="none" xmlns="http://www.w3.org/2000/svg">
<rect width="285" height="285" rx="37" fill="white"/>
<mask id="mask0_10_131" style="mask-type:alpha" maskUnits="userSpaceOnUse" x="0" y="0" width="285" height="285">
<rect width="285" height="285" rx="37" fill="white"/>
</mask>
<g mask="url(#mask0_10_131)">
<path fill-rule="evenodd" clip-rule="evenodd" d="M136.263 9.89581V46.7264H150.737V28.3111V9.89581H136.263ZM106.412 46.7264V238.66H180.588V142.693V46.7264H106.412ZM99.1756 81.4821H69.3245V66.4385V51.3951H54.8512V81.4821H25V238.66H99.1756V160.071V81.4821ZM136.263 275.491V238.661H150.737V257.076V275.491H136.263ZM187.824 203.905V46.7264H262V125.316V203.905H232.149V218.948V234.251H217.675V203.905H187.824Z" fill="url(#paint0_linear_10_131)"/>
</g>
<defs>
<linearGradient id="paint0_linear_10_131" x1="269.255" y1="18.4797" x2="150.538" y2="232.139" gradientUnits="userSpaceOnUse">
<stop offset="0.377266" stop-color="#182825"/>
<stop offset="1" stop-color="#22AED1"/>
</linearGradient>
</defs>
</svg>
