<svg width="512" height="512" viewBox="0 0 512 512" fill="none" xmlns="http://www.w3.org/2000/svg">
<path d="M58 440.656V71.3443H139.714V256V440.656H58Z" fill="white" stroke="white" stroke-width="8.29"/>
<path d="M97.8095 71.3443V0" stroke="white" stroke-width="8.29"/>
<path d="M97.8095 512V440.656" stroke="white" stroke-width="8.29"/>
<path d="M215.143 440.656V71.3443H296.857V256V440.656H215.143Z" fill="#060606" stroke="white" stroke-width="8.29"/>
<path d="M254.952 71.3443V0" stroke="white" stroke-width="8.29"/>
<path d="M254.952 512V440.656" stroke="white" stroke-width="8.29"/>
<path d="M372.286 440.656V71.3443H454V256V440.656H372.286Z" fill="white" stroke="white" stroke-width="8.29"/>
<path d="M412.095 71.3443V0" stroke="white" stroke-width="8.29"/>
<path d="M412.095 512V440.656" stroke="white" stroke-width="8.29"/>
<path d="M368 256L379.5 256L391 256" stroke="black" stroke-width="8.29"/>
<path d="M301 256H334.5H368" stroke="white" stroke-width="8.29"/>
<path d="M276 256L301 256" stroke="white" stroke-width="8.29"/>
<path d="M424.667 274.885H399.524L391.143 256L399.524 237.115H424.667L433.048 256L424.667 274.885Z" stroke="black" stroke-width="8.29"/>
<path d="M267.524 274.885H242.381L234 256L242.381 237.115H267.524L275.905 256L267.524 274.885Z" stroke="white" stroke-width="8.29"/>
<path d="M145 256L131.5 256L118 256" stroke="black" stroke-width="8.29"/>
<path d="M212 256H178H144" stroke="white" stroke-width="8.29"/>
<path d="M234 256L211 256" stroke="white" stroke-width="8.29"/>
<path d="M85.2381 237.115H110.381L118.762 256L110.381 274.885H85.2381L76.8571 256L85.2381 237.115Z" stroke="black" stroke-width="8.29"/>
</svg>
